<?xml version="1.0" encoding="UTF-8"?>
<svg id="_Слой_2" data-name=" Слой 2" xmlns="http://www.w3.org/2000/svg" viewBox="0 0 473.18 797.24">
  <defs>
    <style>
      .cls-1 {
        fill: #b9b9b9;
      }
    </style>
  </defs>
  <g id="_Слой_1-2" data-name=" Слой 1-2">
    <path class="cls-1" d="m367.69,201.78h21.55v-19.26h20.18v-38.52h21.1v-19.26h20.64v-38.06h22.01v-18.8H86.31v-15.59h5.5v-29.35h-5.5V0h-25.98v22.47h-5.96v29.35h5.96v698.9H0v46.52h21.34v-24.26h102.57v24.26h23.18v-46.52h-60.78v-393.94h386.87v-18.8h-22.01v-38.06h-20.64v-19.26h-21.1v-38.52h-20.18v-19.26h-21.55v-21.1h0Zm1.38,45.4v17.89h18.34v32.56h20.18v18.34h22.01v16.05H86.31V92.64h343.29v16.05h-22.01v20.34h-20.18v34.56h-18.34v13.89h-19.26v69.71h19.26Z"/>
  </g>
  <rect class="cls-1" x="86.31" y="128.18" width="35.54" height="35.54"/>
  <rect class="cls-1" x="121.85" y="92.64" width="35.54" height="35.54"/>
  <rect class="cls-1" x="121.85" y="163.72" width="35.54" height="35.54"/>
  <rect class="cls-1" x="158.03" y="128.18" width="35.54" height="35.54"/>
  <rect class="cls-1" x="193.57" y="92.64" width="35.54" height="35.54"/>
  <rect class="cls-1" x="193.57" y="163.72" width="35.54" height="35.54"/>
  <rect class="cls-1" x="229.11" y="128.18" width="35.54" height="35.54"/>
  <rect class="cls-1" x="264.65" y="92.64" width="35.54" height="35.54"/>
  <rect class="cls-1" x="264.65" y="163.72" width="35.54" height="35.54"/>
  <rect class="cls-1" x="300.82" y="128.18" width="35.54" height="35.54"/>
  <rect class="cls-1" x="336.37" y="92.64" width="35.54" height="35.54"/>
  <rect class="cls-1" x="336.37" y="163.72" width="35.54" height="35.54"/>
  <rect class="cls-1" x="86.31" y="199.26" width="35.54" height="35.54"/>
  <rect class="cls-1" x="121.85" y="234.81" width="35.54" height="35.54"/>
  <rect class="cls-1" x="158.03" y="199.26" width="35.54" height="35.54"/>
  <rect class="cls-1" x="193.57" y="234.81" width="35.54" height="35.54"/>
  <rect class="cls-1" x="229.11" y="199.26" width="35.54" height="35.54"/>
  <rect class="cls-1" x="264.65" y="234.81" width="35.54" height="35.54"/>
  <rect class="cls-1" x="300.82" y="199.26" width="35.54" height="35.54"/>
  <rect class="cls-1" x="336.37" y="234.81" width="35.54" height="35.54"/>
  <rect class="cls-1" x="86.31" y="270.35" width="35.54" height="35.54"/>
  <rect class="cls-1" x="121.85" y="305.89" width="35.54" height="35.54"/>
  <rect class="cls-1" x="158.03" y="270.35" width="35.54" height="35.54"/>
  <rect class="cls-1" x="193.57" y="305.89" width="35.54" height="35.54"/>
  <rect class="cls-1" x="229.11" y="270.35" width="35.54" height="35.54"/>
  <rect class="cls-1" x="264.65" y="305.89" width="35.54" height="35.54"/>
  <rect class="cls-1" x="300.82" y="270.35" width="35.54" height="35.54"/>
  <rect class="cls-1" x="371.91" y="259.08" width="35.54" height="46.81"/>
  <rect class="cls-1" x="336.37" y="305.89" width="35.54" height="35.54"/>
  <rect class="cls-1" x="407.45" y="305.89" width="35.54" height="35.54"/>
  <rect class="cls-1" x="371.91" y="128.18" width="35.54" height="35.54"/>
  <path class="cls-1" d="m407.45,92.64h22.15v23.03c0,6.91-5.61,12.51-12.51,12.51h-9.64v-35.54h0Z"/>
</svg>