<?xml version="1.0" encoding="UTF-8"?>
<svg id="_Слой_1" data-name=" Слой 1" xmlns="http://www.w3.org/2000/svg" viewBox="0 0 50 50">
  <defs>
    <style>
      .cls-1 {
        fill: #b9b9b9;
      }
    </style>
  </defs>
  <polygon class="cls-1" points="49.3 46.11 49.3 49.3 46.11 49.3 46.11 50 50 50 50 46.11 49.3 46.11"/>
  <polygon class="cls-1" points="28.89 24.3 25.7 24.3 25.7 21.11 24.3 21.11 24.3 24.3 21.11 24.3 21.11 25.7 24.3 25.7 24.3 28.89 25.7 28.89 25.7 25.7 28.89 25.7 28.89 24.3"/>
  <polygon class="cls-1" points="0 0 0 3.89 .7 3.89 .7 .7 3.89 .7 3.89 0 0 0"/>
  <polygon class="cls-1" points="46.11 .7 49.3 .7 49.3 3.89 50 3.89 50 0 46.11 0 46.11 .7"/>
  <polygon class="cls-1" points=".7 46.11 0 46.11 0 50 3.89 50 3.89 49.3 .7 49.3 .7 46.11"/>
</svg>