<?xml version="1.0" encoding="utf-8"?>
<!-- Generator: Adobe Illustrator 27.8.1, SVG Export Plug-In . SVG Version: 6.00 Build 0)  -->
<svg version="1.1" id="_Слой_1" xmlns="http://www.w3.org/2000/svg" xmlns:xlink="http://www.w3.org/1999/xlink" x="0px"
	 y="0px" viewBox="0 0 24 24" style="enable-background:new 0 0 24 24;" xml:space="preserve">
<style type="text/css">
	.st0{fill:none;}
	.st1{fill:#B9B9B9;}
</style>
<rect class="st0" width="24" height="24"/>
<path class="st1" d="M20.2,15.1c-1,0.4-2,0.6-3,0.6c-4.7,0-8.5-3.8-8.5-8.5c0-1.2,0.2-2.4,0.7-3.4L10,2.5L8.7,3
	c-4.9,1.9-7.4,7.4-5.5,12.4c1.9,4.9,7.4,7.4,12.4,5.5c2.4-0.9,4.3-2.7,5.3-5l0.5-1.2L20.2,15.1L20.2,15.1z M12.1,20.4
	c-4.7,0-8.5-3.8-8.5-8.5c0-3,1.6-5.8,4.3-7.4C6.5,9.7,9.5,15,14.6,16.4c0.8,0.2,1.7,0.4,2.5,0.4c0.7,0,1.4-0.1,2.1-0.2
	C17.7,18.9,15,20.4,12.1,20.4L12.1,20.4z"/>
</svg>
