<?xml version="1.0" encoding="UTF-8"?>
<svg id="_Слой_1" data-name="Слой 1" xmlns="http://www.w3.org/2000/svg" viewBox="0 0 24 24">
  <defs>
    <style>
      .cls-1 {
        fill: none;
      }
    </style>
  </defs>
  <rect class="cls-1" width="24" height="24"/>
  <path d="m11.5,16c-2.49,0-4.5-2.01-4.5-4.5s2.01-4.5,4.5-4.5,4.5,2.01,4.5,4.5-2.01,4.5-4.5,4.5Zm0-1c1.93,0,3.5-1.57,3.5-3.5s-1.57-3.5-3.5-3.5-3.5,1.57-3.5,3.5,1.57,3.5,3.5,3.5Zm.5-10h-1v-3h1v3Zm4.45,2.26l-.71-.71,2.12-2.12.71.71-2.12,2.12Zm1.55,4.74v-1h3v1h-3Zm-2.26,4.45l.71-.71,2.12,2.12-.71.71-2.12-2.12Zm-4.74,1.55h1v3h-1v-3Zm-4.45-2.26l.71.71-2.12,2.12-.71-.71,2.12-2.12Zm-1.55-4.74v1h-3v-1h3Zm2.26-4.45l-.71.71-2.12-2.12.71-.71,2.12,2.12Z"/>
</svg>