<?xml version="1.0" encoding="UTF-8"?>
<svg id="_Слой_1" data-name="Слой 1" xmlns="http://www.w3.org/2000/svg" viewBox="0 0 24 24">
  <defs>
    <style>
      .cls-1 {
        fill: none;
      }

      .cls-2 {
        fill: #b9b9b9;
      }
    </style>
  </defs>
  <rect class="cls-1" width="24" height="24"/>
  <path class="cls-2" d="m19.7,14.61c-.96.38-1.99.58-3.03.57-4.7-.01-8.5-3.84-8.49-8.54,0-1.19.25-2.36.74-3.44l.55-1.2-1.23.46C3.3,4.35.81,9.88,2.7,14.83c1.88,4.94,7.42,7.43,12.36,5.54,2.37-.9,4.29-2.71,5.33-5.02l.55-1.2-1.23.46Zm-8.05,5.3c-4.69,0-8.48-3.81-8.48-8.5,0-3.04,1.63-5.85,4.28-7.36-1.43,5.12,1.56,10.44,6.69,11.87.83.23,1.68.35,2.54.36.71,0,1.41-.08,2.1-.25-1.56,2.42-4.25,3.88-7.12,3.88Z"/>
</svg>