<?xml version="1.0" encoding="UTF-8"?>
<svg id="_Слой_2" data-name=" Слой 2" xmlns="http://www.w3.org/2000/svg" viewBox="0 0 481.18 797.24">
  <g id="_Слой_1-2" data-name=" Слой 1-2">
    <path d="m375.69,201.78h21.55v-19.26h20.18v-38.52h21.1v-19.26h20.64v-38.06h22.01v-18.8H86.31v-15.59h5.5v-29.35h-5.5V0h-25.98v22.47h-5.96v29.35h5.96v698.9H0v46.52h21.34v-24.26h102.57v24.26h23.18v-46.52h-60.78v-393.94h394.87v-18.8h-22.01v-38.06h-20.64v-19.26h-21.1v-38.52h-20.18v-19.26h-21.55v-21.1h0Zm1.38,45.4v17.89h18.34v32.56h20.18v18.34h22.01v16.05H86.31V92.64h351.29v16.05h-22.01v18.34h-20.18v32.56h-18.34v17.89h-19.26v69.71h19.26Z"/>
  </g>
</svg>