<?xml version="1.0" encoding="utf-8"?>
<!-- Generator: Adobe Illustrator 27.8.1, SVG Export Plug-In . SVG Version: 6.00 Build 0)  -->
<svg version="1.1" id="_Слой_1" xmlns="http://www.w3.org/2000/svg" xmlns:xlink="http://www.w3.org/1999/xlink" x="0px"
	 y="0px" viewBox="0 0 24 24" style="enable-background:new 0 0 24 24;" xml:space="preserve">
<style type="text/css">
	.st0{fill:none;}
</style>
<rect class="st0" width="24" height="24"/>
<path d="M12,16.5c-2.5,0-4.5-2-4.5-4.5s2-4.5,4.5-4.5s4.5,2,4.5,4.5S14.5,16.5,12,16.5z M12,15.5c1.9,0,3.5-1.6,3.5-3.5
	S13.9,8.5,12,8.5S8.5,10.1,8.5,12S10.1,15.5,12,15.5z M12.5,5.5h-1v-3h1V5.5z M17,7.8l-0.7-0.7l2.1-2.1l0.7,0.7L17,7.8z M18.5,12.5
	v-1h3v1H18.5z M16.2,17l0.7-0.7l2.1,2.1l-0.7,0.7C18.4,19.1,16.2,17,16.2,17z M11.5,18.5h1v3h-1V18.5z M7.1,16.2l0.7,0.7l-2.1,2.1
	l-0.7-0.7C4.9,18.4,7.1,16.2,7.1,16.2z M5.5,11.5v1h-3v-1H5.5z M7.8,7.1L7.1,7.8L4.9,5.6l0.7-0.7L7.8,7.1z"/>
</svg>
