<?xml version="1.0" encoding="utf-8"?>
<!-- Generator: Adobe Illustrator 27.5.0, SVG Export Plug-In . SVG Version: 6.00 Build 0)  -->
<svg version="1.1" id="_Слой_1" xmlns="http://www.w3.org/2000/svg" xmlns:xlink="http://www.w3.org/1999/xlink" x="0px"
	 y="0px" viewBox="0 0 50 50" style="enable-background:new 0 0 50 50;" xml:space="preserve">
<style type="text/css">
	.st0{fill:#1D1D1B;}
</style>
<polygon class="st0" points="49.3,46.1 49.3,49.3 46.1,49.3 46.1,50 50,50 50,46.1 "/>
<polygon class="st0" points="28.9,24.3 25.7,24.3 25.7,21.1 24.3,21.1 24.3,24.3 21.1,24.3 21.1,25.7 24.3,25.7 24.3,28.9 
	25.7,28.9 25.7,25.7 28.9,25.7 "/>
<polygon class="st0" points="0,0 0,3.9 0.7,3.9 0.7,0.7 3.9,0.7 3.9,0 "/>
<polygon class="st0" points="46.1,0.7 49.3,0.7 49.3,3.9 50,3.9 50,0 46.1,0 "/>
<polygon class="st0" points="0.7,46.1 0,46.1 0,50 3.9,50 3.9,49.3 0.7,49.3 "/>
</svg>
